<?xml version="1.0" standalone="no"?><svg xmlns="http://www.w3.org/2000/svg" viewBox="0 0 1440 320"><path fill="#a2d9ff" fill-opacity="1" d="M0,256L16,250.7C32,245,64,235,96,202.7C128,171,160,117,192,128C224,139,256,213,288,250.7C320,288,352,288,384,288C416,288,448,288,480,266.7C512,245,544,203,576,186.7C608,171,640,181,672,186.7C704,192,736,192,768,197.3C800,203,832,213,864,213.3C896,213,928,203,960,176C992,149,1024,107,1056,90.7C1088,75,1120,85,1152,106.7C1184,128,1216,160,1248,170.7C1280,181,1312,171,1344,176C1376,181,1408,203,1424,213.3L1440,224L1440,320L1424,320C1408,320,1376,320,1344,320C1312,320,1280,320,1248,320C1216,320,1184,320,1152,320C1120,320,1088,320,1056,320C1024,320,992,320,960,320C928,320,896,320,864,320C832,320,800,320,768,320C736,320,704,320,672,320C640,320,608,320,576,320C544,320,512,320,480,320C448,320,416,320,384,320C352,320,320,320,288,320C256,320,224,320,192,320C160,320,128,320,96,320C64,320,32,320,16,320L0,320Z"></path></svg>